<svg xmlns="http://www.w3.org/2000/svg" viewBox="0 0 300 200" fill="none" aria-hidden="true">
  <g class="mingle-type" fill="#79797A">
    <path d="M64.4,79.5c6.8-8.4,20.8-9,28.6-1.6c5.9,5.7,5.1,15.2,5.1,22.8l0,14.5c-2.8-0.1-5.8,0-8.6,0c-0.2-7.5,0-15,0-23c0-10.5-9.8-15.3-18-8.7c-2.8,2.2-3.1,6.8-3.1,10.4c-0.1,7.1,0,14.3,0,21.4c-2.7-0.1-5.6,0-8.3,0c-0.1-5.4,0.1-10.9,0-16.3c-0.1-5.8,1-13.1-4.7-16.7c-3.9-2.4-10.5-2.2-13.7,1.3c-2.7,2.9-3.3,6.8-3.3,10.7c0,7,0,14,0.1,21l-8.5,0l0-16.4c0-3.5-0.2-8.3,0.5-11.6c0.5-2.8,1.7-5.4,3.5-7.6c3.4-4.2,7.8-6,13-6.6C53.9,71.9,59.6,74.7,64.4,79.5z"/>
    <path d="M244.8,73c10.2-1,16.8,3.4,22.7,11.1c-8.5,6.8-20.8,15.2-29.8,21.4c9.1,6.7,21.5,3.2,23.6-8.6c0.2-1.1,0.2-2.7,0.3-3.9c2.3-0.1,5,0,7.3,0.1c0.6,0,0.6-0.1,1.2,0.3c0.1,0.2,0.2,0.5,0.2,0.7c0.4,11-7.6,20.4-18.3,22c-6.8,1-13.2,0.1-18.5-3.8c-4.6-3.4-7.7-8.6-8.5-14.3C222.8,84.5,231.7,74.8,244.8,73z M233.4,98.7c2.1-1.5,4.2-3,6.3-4.5c4.3-3,11.5-7.9,15.4-11.3c-4-1.9-5.4-2.5-10-2.2C235.1,82.5,232.3,89.3,233.4,98.7z"/>
    <path d="M141.8,73c9.7-1.2,17.6,2,23.1,10c-2.5,5.3-4.4,11.3-2.7,17c1.9,6.2,2,8.8,1.9,15.2l-8,0c-0.1-8.3,0.6-17.7-0.4-25.7c-0.9-7.6-9.6-9.7-16-8.2c-2.3,0.8-4.1,1.9-5.8,3.7c-1.8,1.9-3.1,4.2-3.7,6.7c-1.2,4.4-0.9,18.4-0.7,23.6c-2.8-0.1-5.7,0-8.5,0l0-41.7l8.6,0c-0.1,1.9,0,3.9,0,5.8C132.8,75.3,136.8,73.7,141.8,73L141.8,73z"/>
    <path d="M184.4,89.2l6.9,0l0,1.9l-5.1,0c-0.1,0.8-0.2,1.5-0.3,2.3c0.3-0.1,0.6-0.2,0.9-0.3c5.7-1.3,7.4,6.4,1.7,7.5c-2.5,0.2-3.7-0.2-5.3-2.1c0.6-0.4,1.1-0.7,1.7-1.1c0.5,0.6,0.9,0.9,1.8,1.2c1.8,0.6,3.9-1.2,2.7-2.9c-1.1-1.6-3.1-0.7-4.2,0.1c-0.6-0.4-1.1-0.9-1.7-1.3C183.9,92.8,184.2,90.8,184.4,89.2z"/>
    <path d="M177.5,89c1.5-0.2,3.4,0.2,4.3,1.5c0.5,0.7,0.8,1.6,0.6,2.5c-0.4,2.3-3.2,4-5,5.3c1.7,0,3.4,0,5.2,0l0,2l-5.9,0l-2.9,0l0-1.8c1.6-1.1,3-2.2,4.6-3.4c1.9-1.5,2.7-4.1-0.8-3.9c-0.8,0-1.4,0.9-1.9,1.5l-1.8-1.1C174.8,89.8,175.7,89.2,177.5,89z"/>
    <path d="M208.4,103.9c0,0.7,0,1.4,0.1,2c0.2,9.3,1.5,20.4-5.5,27.5c-8.3,8.4-23.4,8.6-31.7,0.1c-4.9-5-5.6-9.8-5.6-16.4c0-3,0-6.1,0-9.1c2.7,3.5,4.4,5.2,8.3,7.5c0,4.8,0,8.5,3.5,12.3c4.8,5.1,13.8,5.4,18.8,0.5c4.2-4.1,3.7-8.8,3.7-14.2C204,111.1,205.8,108,208.4,103.9L208.4,103.9z"/>
    <path d="M211.4,52.3l8,0c-0.4,14.5,0.3,29.8,0.1,44.4c-0.1,5.7,0.3,12.7-0.1,18.2c-0.7,0.4-2,0.3-2.9,0.3l-5.2,0c-0.1-7.6,0.1-15.4,0.1-23C211.4,79,211.1,65.5,211.4,52.3z"/>
    <path d="M195.5,89.2c0.7,0,1.4,0,2.1,0l0,11.1l-2.3,0l0-2.9l0-5.7c-0.9,0.6-1.9,1.2-2.8,1.8c0-0.8,0-1.6,0-2.4C193.5,90.5,194.5,89.8,195.5,89.2z"/>
    <path d="M104.2,73.6l8.4-0.1c-0.2,13.6,0,28,0,41.7l-8.4,0L104.2,73.6z"/>
  </g>
  <g class="mingle-heart" fill="#FE3461">
    <path d="M182.5,72.7c12.4-1.8,24,6.8,25.7,19.3s-7,23.9-19.4,25.6c-12.4,1.6-23.7-7-25.4-19.3C161.6,86,170.1,74.5,182.5,72.7z M185.7,109.5c7.9,0,14.3-6.3,14.3-14.2c0.1-7.9-6.3-14.3-14.1-14.4c-7.9-0.1-14.4,6.3-14.5,14.2C171.4,103,177.8,109.4,185.7,109.5L185.7,109.5z"/>
    <path d="M104,58.6c0.3,0,0.5,0,0.8,0c5.8-0.1,7.9,2.8,7.7,8.4c-2.8-0.1-5.7,0-8.6,0C104.1,64,104.1,61.6,104,58.6z"/>
  </g>
</svg>
